<svg width="100" height="65" viewBox="0 0 100 65" fill="none" xmlns="http://www.w3.org/2000/svg">
<path d="M13.5768 0.640907C13.4169 0.408883 13.1344 0.166494 12.9491 0.102094L12.9239 0.0933784C12.6154 -0.0137437 12.4761 -0.0621212 12.2709 0.134352C11.8898 0.300824 4.49053 11.0801 3.87197 12.3697C3.85363 12.408 3.82822 12.4601 3.79645 12.5253C3.20602 13.7369 0.421882 19.4503 0.0964516 23.9479C-0.00572938 25.3601 -0.0555134 26.5416 0.09494 27.5733C0.32748 29.1676 1.15428 30.3408 2.51242 31.0032C3.92243 31.6911 4.15683 31.6707 12.8792 30.1017C13.4485 29.9993 13.9692 29.9058 14.4453 29.8203C19.1238 28.9804 19.505 28.9119 19.6163 28.7026C19.6261 28.684 19.6339 28.6643 19.6423 28.6429C19.652 28.6183 19.6626 28.5914 19.6783 28.5613C19.9784 27.9862 19.5646 27.161 18.7709 26.7519C18.5115 26.6182 17.7273 26.5712 15.0503 26.5289C13.1847 26.4994 11.1702 26.4458 10.5738 26.4097C9.58257 26.3501 9.45514 26.3148 9.09494 26.0013C8.85972 25.7968 8.67497 25.5109 8.63695 25.2928C8.60184 25.0917 8.53486 23.346 8.48801 21.4134L8.40278 17.8996L7.32728 17.8664C6.58211 17.8435 6.25179 17.7906 6.25179 17.6941C6.25179 17.6175 9.29946 14.5346 13.0245 10.8433C13.0245 10.8433 19.0986 4.66423 19.4578 3.83176C19.8171 2.99928 19.5619 2.25137 18.8916 1.88778C18.5471 1.70092 18.4096 1.68167 18.1396 1.78259C17.9579 1.85057 16.1374 3.14732 14.0943 4.66423L13.9608 4.76332C10.8285 7.08881 9.61693 7.9883 9.5704 7.93252C9.54105 7.89734 9.97514 7.48216 10.683 6.80512L10.6831 6.80502L10.7302 6.76005C11.9617 5.58212 12.2088 5.20188 12.6799 4.47704C12.8008 4.29106 12.9364 4.0824 13.1072 3.83176C13.7862 2.58731 13.855 2.39814 13.861 1.76243C13.8662 1.19873 13.811 0.980763 13.5768 0.640907Z" fill="#005F75"/>
<path d="M26.8584 0.640907C27.0183 0.408883 27.3008 0.166494 27.4861 0.102094L27.5112 0.0933788C27.8197 -0.0137436 27.9591 -0.0621214 28.1643 0.134352C28.5453 0.300824 35.9447 11.0801 36.5632 12.3697C36.5816 12.408 36.607 12.4601 36.6387 12.5253C37.2292 13.737 40.0133 19.4503 40.3387 23.9479C40.4409 25.3601 40.4907 26.5416 40.3402 27.5733C40.1077 29.1676 39.2809 30.3408 37.9228 31.0032C36.5127 31.6911 36.2783 31.6707 27.556 30.1017C26.9866 29.9993 26.466 29.9058 25.9899 29.8203C21.3114 28.9804 20.9302 28.9119 20.8189 28.7026C20.809 28.684 20.8013 28.6643 20.7929 28.6429C20.7832 28.6183 20.7726 28.5914 20.7569 28.5613C20.4568 27.9862 20.8706 27.161 21.6643 26.7519C21.9237 26.6182 22.7079 26.5712 25.3849 26.5289C27.2504 26.4994 29.2649 26.4458 29.8614 26.4097C30.8526 26.3501 30.98 26.3148 31.3402 26.0013C31.5755 25.7968 31.7602 25.5109 31.7982 25.2928C31.8333 25.0917 31.9003 23.346 31.9472 21.4134L32.0324 17.8996L33.1079 17.8664C33.8531 17.8435 34.1834 17.7906 34.1834 17.6941C34.1834 17.6175 31.1357 14.5346 27.4107 10.8433C27.4107 10.8433 21.3366 4.66423 20.9774 3.83176C20.6181 2.99928 20.8733 2.25137 21.5436 1.88778C21.8881 1.70092 22.0256 1.68167 22.2956 1.78259C22.4773 1.85057 24.2978 3.14732 26.3409 4.66423L26.4744 4.76337L26.4746 4.76348L26.4747 4.76361L26.475 4.76379L26.4751 4.76388C29.6069 7.08897 30.8183 7.98829 30.8648 7.93252C30.8941 7.89733 30.46 7.48211 29.752 6.80498L29.705 6.76005C28.4735 5.58212 28.2263 5.20188 27.7552 4.47704L27.7551 4.47683C27.6343 4.29091 27.4987 4.08231 27.328 3.83176C26.649 2.58731 26.5801 2.39814 26.5742 1.76243C26.569 1.19873 26.6242 0.980763 26.8584 0.640907Z" fill="#005F75"/>
<path fill-rule="evenodd" clip-rule="evenodd" d="M13.749 12.471C13.4605 12.5634 13.2432 12.9907 13.1818 13.5863C13.1387 14.0039 13.1233 15.2008 13.1564 15.5524C13.216 16.1848 13.3629 16.8055 13.606 17.4529C13.6726 17.6302 13.7271 17.7938 13.7271 17.8164C13.7271 17.839 13.6769 17.969 13.6155 18.1051C13.3363 18.7245 13.2062 19.5367 13.259 20.3314C13.3242 21.3148 13.5983 21.9899 14.1842 22.611C14.7491 23.2097 15.6884 23.7614 16.682 24.0783C17.7152 24.4077 18.6472 24.5392 19.9461 24.5388C22.2909 24.5381 24.0475 24.1322 25.3241 23.2962C26.2938 22.6612 26.8071 21.9141 26.9854 20.878C27.0299 20.6192 27.0346 20.5141 27.0232 20.0397C27.0047 19.273 26.903 18.7756 26.647 18.1998C26.5859 18.0625 26.5359 17.9243 26.5359 17.8928C26.5359 17.8613 26.5849 17.7158 26.6446 17.5694C26.8986 16.9473 27.0539 16.3586 27.1443 15.676C27.1905 15.3263 27.223 14.1788 27.1991 13.7407C27.1664 13.1424 26.9638 12.6865 26.6719 12.554C26.5515 12.4993 26.3336 12.4952 26.1279 12.5437C25.9263 12.5913 25.3256 12.8273 25.0325 12.974C24.4872 13.247 23.8112 13.7491 23.2533 14.2954C23.0456 14.4988 22.8477 14.6757 22.8136 14.6886C22.7437 14.715 22.6961 14.7033 22.3199 14.5664C22.0375 14.4636 21.5844 14.355 21.1701 14.2907C20.762 14.2275 19.5267 14.2274 19.1177 14.2906C18.7028 14.3547 18.1529 14.4941 17.8639 14.6083C17.5565 14.7299 17.4832 14.7255 17.3649 14.5788C17.3215 14.525 17.2725 14.4835 17.256 14.4868C17.2395 14.49 17.2292 14.4776 17.2331 14.4592C17.2426 14.414 17.1896 14.3537 17.1576 14.3734C17.1435 14.3821 17.1386 14.3785 17.1467 14.3653C17.1659 14.3344 16.696 13.8716 16.4194 13.649C15.9506 13.2716 15.5596 13.0324 14.9388 12.7433C14.3631 12.4752 13.9972 12.3914 13.749 12.471ZM17.3405 14.5727C17.3712 14.6118 17.3704 14.6127 17.3311 14.5821C17.2899 14.5498 17.2769 14.5296 17.2972 14.5296C17.3023 14.5296 17.3218 14.549 17.3405 14.5727Z" fill="#005F75"/>
<path d="M6.69093 39.4789V39.263H9.07186V48.3097C9.07186 48.4522 9.1892 48.5678 9.33396 48.5678H12.7916C12.9364 48.5678 13.0537 48.4522 13.0537 48.3097V36.0203C13.0537 35.8777 12.9364 35.7621 12.7916 35.7621H3.20289C3.05813 35.7621 2.94078 35.8777 2.94078 36.0203V37.7233C2.94078 41.4463 2.7076 43.3918 2.36815 44.4012C2.1997 44.9021 2.01559 45.1394 1.85233 45.2574C1.69389 45.3719 1.51923 45.4005 1.29584 45.4005C1.22695 45.4005 1.07542 45.3925 0.916587 45.3794C0.753971 45.3661 0.610869 45.3496 0.550664 45.3364C0.47695 45.3203 0.399753 45.3362 0.338851 45.3802C0.277949 45.4242 0.239261 45.4919 0.232697 45.566L0.000999796 48.1819C-0.00954102 48.3009 0.0641759 48.4115 0.179225 48.4492C0.473172 48.5458 1.3923 48.7434 2.32956 48.7434C2.96215 48.7434 3.56733 48.645 4.11493 48.3605C4.6654 48.0746 5.13693 47.6113 5.5187 46.9161C6.27377 45.541 6.69093 43.2331 6.69093 39.4789Z" fill="#005F75"/>
<path d="M14.9958 48.3097C14.9958 48.4522 15.1132 48.5678 15.2579 48.5678H25.3813C25.5261 48.5678 25.6434 48.4522 25.6434 48.3097V45.4129C25.6434 45.2703 25.5261 45.1547 25.3813 45.1547H18.942V43.7223H24.6684C24.8132 43.7223 24.9305 43.6067 24.9305 43.4641V40.778C24.9305 40.6355 24.8132 40.5199 24.6684 40.5199H18.942V39.1753H25.2922C25.437 39.1753 25.5543 39.0597 25.5543 38.9171V36.0203C25.5543 35.8777 25.437 35.7621 25.2922 35.7621H15.2579C15.1132 35.7621 14.9958 35.8777 14.9958 36.0203V48.3097Z" fill="#005F75"/>
<path d="M27.6591 48.5678C27.5144 48.5678 27.397 48.4522 27.397 48.3097V36.0203C27.397 35.8777 27.5144 35.7621 27.6591 35.7621H31.1168C31.2615 35.7621 31.3789 35.8777 31.3789 36.0203V40.3619H35.2926V36.0203C35.2926 35.8777 35.4099 35.7621 35.5547 35.7621H39.0123C39.1571 35.7621 39.2744 35.8777 39.2744 36.0203V48.3097C39.2744 48.4522 39.1571 48.5678 39.0123 48.5678H35.5547C35.4099 48.5678 35.2926 48.4522 35.2926 48.3097V43.8979H31.3789V48.3097C31.3789 48.4522 31.2615 48.5678 31.1168 48.5678H27.6591Z" fill="#005F75"/>
<path fill-rule="evenodd" clip-rule="evenodd" d="M41.084 48.3097C41.084 48.4522 41.2014 48.5678 41.3461 48.5678H46.8712C48.4393 48.5678 49.7575 48.1568 50.6882 47.376C51.6238 46.5911 52.1415 45.4539 52.1415 44.0611C52.1415 42.5991 51.5597 41.4767 50.5687 40.7269C49.5867 39.9839 48.2275 39.6245 46.693 39.6245H45.0659V36.0203C45.0659 35.8777 44.9485 35.7621 44.8038 35.7621H41.3461C41.2014 35.7621 41.084 35.8777 41.084 36.0203V48.3097ZM45.0659 45.1898V42.8094H46.6217C47.1414 42.8094 47.5271 42.9395 47.7775 43.14C48.022 43.3358 48.1597 43.6158 48.1597 43.9733C48.1597 44.3916 48.0163 44.6808 47.776 44.8718C47.527 45.0698 47.1393 45.1898 46.6039 45.1898H45.0659Z" fill="#005F75"/>
<path d="M53.2099 48.5678C53.0652 48.5678 52.9478 48.4522 52.9478 48.3097V36.0203C52.9478 35.8777 53.0652 35.7621 53.2099 35.7621H56.6675C56.8123 35.7621 56.9297 35.8777 56.9297 36.0203V40.303L60.763 35.8533C60.8128 35.7955 60.8859 35.7621 60.9629 35.7621H65.0621C65.1651 35.7621 65.2586 35.8215 65.301 35.914C65.3434 36.0064 65.3269 36.1148 65.2589 36.1909L60.6707 41.3244L65.4386 48.1635C65.4937 48.2425 65.4998 48.3451 65.4545 48.4299C65.4091 48.5147 65.3198 48.5678 65.2225 48.5678H61.0698C60.9828 48.5678 60.9015 48.5253 60.8528 48.4544L57.9038 44.1632L56.9297 45.2309V48.3097C56.9297 48.4522 56.8123 48.5678 56.6675 48.5678H53.2099Z" fill="#005F75"/>
<path d="M65.9669 48.3097C65.9669 48.4522 66.0842 48.5678 66.229 48.5678H69.4549C69.5412 48.5678 69.622 48.526 69.6709 48.456L74.0228 42.2234V48.3097C74.0228 48.4522 74.1402 48.5678 74.2849 48.5678H77.7069C77.8517 48.5678 77.969 48.4522 77.969 48.3097V36.0203C77.969 35.8777 77.8517 35.7621 77.7069 35.7621H74.481C74.3947 35.7621 74.3139 35.804 74.265 35.874L69.9131 42.1065V36.0203C69.9131 35.8777 69.7957 35.7621 69.651 35.7621H66.229C66.0842 35.7621 65.9669 35.8777 65.9669 36.0203V48.3097Z" fill="#005F75"/>
<path d="M79.9094 48.5678C79.7647 48.5678 79.6473 48.4522 79.6473 48.3097V36.0203C79.6473 35.8777 79.7647 35.7621 79.9094 35.7621H83.3671C83.5118 35.7621 83.6292 35.8777 83.6292 36.0203V40.3619H87.5429V36.0203C87.5429 35.8777 87.6602 35.7621 87.805 35.7621H91.2626C91.4074 35.7621 91.5247 35.8777 91.5247 36.0203V48.3097C91.5247 48.4522 91.4074 48.5678 91.2626 48.5678H87.805C87.6602 48.5678 87.5429 48.4522 87.5429 48.3097V43.8979H83.6292V48.3097C83.6292 48.4522 83.5118 48.5678 83.3671 48.5678H79.9094Z" fill="#005F75"/>
<path fill-rule="evenodd" clip-rule="evenodd" d="M27.0879 57.7157C27.0879 61.4112 24.0735 64.3973 20.0803 64.3973C16.0862 64.3973 13.1085 61.4456 13.1085 57.7157C13.1085 54.0203 16.1228 51.0342 20.116 51.0342C24.1101 51.0342 27.0879 53.9859 27.0879 57.7157ZM17.1843 57.7157C17.1843 59.378 18.3923 60.7908 20.116 60.7908C21.8565 60.7908 23.0299 59.4145 23.0299 57.7157C23.0299 56.0545 21.8228 54.6407 20.0803 54.6407C18.3586 54.6407 17.1843 56.0159 17.1843 57.7157Z" fill="#005F75"/>
<path d="M1.79712 63.8908C1.79712 64.0341 1.91461 64.1503 2.05953 64.1503H5.52131C5.66624 64.1503 5.78373 64.0341 5.78373 63.8908V60.7969L6.75908 59.7239L9.71153 64.0363C9.76034 64.1076 9.84175 64.1503 9.92883 64.1503H14.0865C14.184 64.1503 14.2734 64.0969 14.3188 64.0117C14.3641 63.9264 14.358 63.8234 14.3029 63.7439L9.52927 56.871L14.1229 51.7121C14.191 51.6356 14.2075 51.5267 14.1651 51.4338C14.1226 51.3409 14.0291 51.2812 13.9259 51.2812H9.82177C9.74471 51.2812 9.67155 51.3147 9.62169 51.3728L5.78373 55.8446V51.5407C5.78373 51.3974 5.66624 51.2812 5.52131 51.2812H2.05953C1.91461 51.2812 1.79712 51.3974 1.79712 51.5407V63.8908Z" fill="#005F75"/>
<path d="M30.3907 63.8908C30.3907 64.0341 30.5082 64.1503 30.6531 64.1503H34.1149C34.2598 64.1503 34.3773 64.0341 34.3773 63.8908V54.7994H37.8622C38.0071 54.7994 38.1246 54.6833 38.1246 54.54V51.5407C38.1246 51.3974 38.0071 51.2812 37.8622 51.2812H26.9058C26.7609 51.2812 26.6434 51.3974 26.6434 51.5407V54.54C26.6434 54.6833 26.7609 54.7994 26.9058 54.7994H30.3907V63.8908Z" fill="#005F75"/>
<path d="M18.0996 35.3803C18.9503 35.3803 19.6399 34.6966 19.6399 33.8531C19.6399 33.0097 18.9503 32.3259 18.0996 32.3259C17.2488 32.3259 16.5592 33.0097 16.5592 33.8531C16.5592 34.6966 17.2488 35.3803 18.0996 35.3803Z" fill="#005F75"/>
<path d="M23.876 33.8531C23.876 34.6966 23.1864 35.3803 22.3356 35.3803C21.4849 35.3803 20.7952 34.6966 20.7952 33.8531C20.7952 33.0097 21.4849 32.3259 22.3356 32.3259C23.1864 32.3259 23.876 33.0097 23.876 33.8531Z" fill="#005F75"/>
<path d="M92.7758 51.5541C93.1359 51.5541 93.3858 51.3273 93.4408 50.9661L93.1274 50.9073C93.0723 51.0837 92.9664 51.1929 92.7758 51.1929C92.5852 51.1929 92.475 51.0837 92.4242 50.9073L92.1065 50.9661C92.1658 51.3273 92.4157 51.5541 92.7758 51.5541Z" fill="#005F75"/>
<path d="M91.5092 54.725H92.0006L93.4959 52.5831V54.725H94.0085V51.7851H93.5213L92.0218 53.9312V51.7851H91.5092V54.725Z" fill="#005F75"/>
<path fill-rule="evenodd" clip-rule="evenodd" d="M54.9815 54.7754C55.8922 54.7754 56.5361 54.0824 56.5361 53.255C56.5361 52.4193 55.9007 51.7347 54.9899 51.7347C54.0792 51.7347 53.4353 52.4277 53.4353 53.255C53.4353 54.0908 54.0707 54.7754 54.9815 54.7754ZM54.9899 54.3008C54.4011 54.3008 53.9818 53.8262 53.9818 53.255C53.9818 52.6755 54.3927 52.2093 54.9815 52.2093C55.5703 52.2093 55.9897 52.6839 55.9897 53.255C55.9897 53.8346 55.5788 54.3008 54.9899 54.3008Z" fill="#005F75"/>
<path fill-rule="evenodd" clip-rule="evenodd" d="M47.4506 54.725H47.9844L48.2894 54.0152H49.6915L49.9923 54.725H50.543L49.2383 51.7641H48.7553L47.4506 54.725ZM48.48 53.5574L48.9883 52.3815L49.5009 53.5574H48.48Z" fill="#005F75"/>
<path fill-rule="evenodd" clip-rule="evenodd" d="M42.7757 54.725H41.4583V51.7851H43.6695V52.2513H41.9751V52.9274H42.8011C43.4534 52.9274 43.877 53.2508 43.877 53.8178C43.877 54.4058 43.4534 54.725 42.7757 54.725ZM41.9751 53.3642V54.263H42.6613C43.1103 54.263 43.356 54.158 43.356 53.7968C43.356 53.5112 43.14 53.3642 42.7545 53.3642H41.9751Z" fill="#005F75"/>
<path d="M45.3934 52.5159C45.3934 54.3848 45.0503 54.7586 44.4657 54.7586C44.3513 54.7586 44.1861 54.7334 44.1056 54.7124L44.1565 54.2882C44.1946 54.3008 44.2624 54.3134 44.3259 54.3134C44.6267 54.3134 44.9062 54.1244 44.9062 52.3647V51.7851H46.9396V54.725H46.4185V52.2513H45.3934V52.5159Z" fill="#005F75"/>
<path d="M51.5683 54.725H51.0515V51.7851H53.0466V52.2513H51.5683V54.725Z" fill="#005F75"/>
<path d="M58.4195 54.725H57.8942V52.2639H56.9538V51.7851H59.3599V52.2639H58.4195V54.725Z" fill="#005F75"/>
<path fill-rule="evenodd" clip-rule="evenodd" d="M59.9124 54.725H61.2849C61.9458 54.725 62.3821 54.4436 62.3821 53.9186C62.3821 53.5112 62.1406 53.3138 61.7933 53.1962C62.0135 53.0828 62.2169 52.8938 62.2169 52.5411C62.2169 52.3353 62.1491 52.1757 62.0178 52.0455C61.8483 51.8775 61.5815 51.7851 61.2426 51.7851H59.9124V54.725ZM60.425 53.024V52.2429H61.1748C61.5094 52.2429 61.6958 52.3857 61.6958 52.6167C61.6958 52.8938 61.4713 53.024 61.1367 53.024H60.425ZM60.425 54.2672V53.4608H61.251C61.6619 53.4608 61.861 53.6078 61.861 53.8556C61.861 54.1286 61.645 54.2672 61.2892 54.2672H60.425Z" fill="#005F75"/>
<path fill-rule="evenodd" clip-rule="evenodd" d="M65.939 53.255C65.939 54.0824 65.2951 54.7754 64.3844 54.7754C63.4736 54.7754 62.8382 54.0908 62.8382 53.255C62.8382 52.4277 63.4821 51.7347 64.3928 51.7347C65.3036 51.7347 65.939 52.4193 65.939 53.255ZM63.3847 53.255C63.3847 53.8262 63.804 54.3008 64.3928 54.3008C64.9817 54.3008 65.3926 53.8346 65.3926 53.255C65.3926 52.6839 64.9732 52.2093 64.3844 52.2093C63.7956 52.2093 63.3847 52.6755 63.3847 53.255Z" fill="#005F75"/>
<path fill-rule="evenodd" clip-rule="evenodd" d="M66.5685 54.725H67.0896V53.78H67.6784C68.3307 53.78 68.8645 53.4356 68.8645 52.7763C68.8645 52.1757 68.4282 51.7851 67.7377 51.7851H66.5685V54.725ZM67.0896 53.3138V52.2555H67.6953C68.085 52.2555 68.335 52.4361 68.335 52.7805C68.335 53.0954 68.0893 53.3138 67.6953 53.3138H67.0896Z" fill="#005F75"/>
<path d="M69.8895 54.725H69.3981V51.7851H69.9107V53.9312L71.4102 51.7851H71.8974V54.725H71.3848V52.5831L69.8895 54.725Z" fill="#005F75"/>
<path d="M73.3948 54.725H73.92V52.2639H74.8604V51.7851H72.4543V52.2639H73.3948V54.725Z" fill="#005F75"/>
<path d="M77.6327 54.725H75.413V51.7851H77.6115V52.2471H75.934V53.0114H77.4209V53.4734H75.934V54.263H77.6327V54.725Z" fill="#005F75"/>
<path d="M78.2508 54.7586C78.8354 54.7586 79.1785 54.3848 79.1785 52.5159V52.2513H80.2036V54.725H80.7247V51.7851H78.6914V52.3647C78.6914 54.1244 78.4118 54.3134 78.111 54.3134C78.0475 54.3134 77.9797 54.3008 77.9416 54.2882L77.8907 54.7124C77.9712 54.7334 78.1364 54.7586 78.2508 54.7586Z" fill="#005F75"/>
<path fill-rule="evenodd" clip-rule="evenodd" d="M82.6845 54.725H81.4899V51.7851H82.0067V52.8435H82.6887C83.3538 52.8435 83.8028 53.171 83.8028 53.7632C83.8028 54.3554 83.3707 54.725 82.6845 54.725ZM82.0067 53.2928V54.263H82.676C83.0615 54.263 83.286 54.0908 83.286 53.759C83.286 53.4566 83.0615 53.2928 82.6675 53.2928H82.0067Z" fill="#005F75"/>
<path d="M84.3484 54.725H84.8695V53.486H86.2843V54.725H86.8053V51.7851H86.2843V53.0072H84.8695V51.7851H84.3484V54.725Z" fill="#005F75"/>
<path fill-rule="evenodd" clip-rule="evenodd" d="M88.7614 54.725H87.5668V51.7851H88.0836V52.8435H88.7656C89.4307 52.8435 89.8797 53.171 89.8797 53.7632C89.8797 54.3554 89.4477 54.725 88.7614 54.725ZM88.0836 53.2928V54.263H88.7529C89.1384 54.263 89.3629 54.0908 89.3629 53.759C89.3629 53.4566 89.1384 53.2928 88.7445 53.2928H88.0836Z" fill="#005F75"/>
<path d="M90.7481 54.725H90.2313V51.7851H90.7481V54.725Z" fill="#005F75"/>
<path fill-rule="evenodd" clip-rule="evenodd" d="M43.2755 59.5473H42.7587V59.2281C41.8268 59.2281 41.2761 58.6905 41.2761 57.9387C41.2761 57.1912 41.831 56.6662 42.7587 56.6662V56.389H43.2755V56.6662C44.2032 56.6662 44.7582 57.1912 44.7582 57.9429C44.7582 58.6905 44.2117 59.2281 43.2755 59.2281V59.5473ZM41.8098 57.9471C41.8098 58.4679 42.1741 58.7703 42.7587 58.7703V57.1282C42.1741 57.1282 41.8098 57.4347 41.8098 57.9471ZM43.2755 57.1282V58.7703C43.8643 58.7703 44.2244 58.4679 44.2244 57.9471C44.2244 57.4347 43.8643 57.1282 43.2755 57.1282Z" fill="#005F75"/>
<path fill-rule="evenodd" clip-rule="evenodd" d="M46.7575 59.4843C47.6683 59.4843 48.3122 58.7913 48.3122 57.9639C48.3122 57.1282 47.6768 56.4436 46.766 56.4436C45.8553 56.4436 45.2114 57.1366 45.2114 57.9639C45.2114 58.7997 45.8468 59.4843 46.7575 59.4843ZM46.766 59.0097C46.1772 59.0097 45.7578 58.5351 45.7578 57.9639C45.7578 57.3843 46.1687 56.9182 46.7575 56.9182C47.3464 56.9182 47.7657 57.3928 47.7657 57.9639C47.7657 58.5435 47.3548 59.0097 46.766 59.0097Z" fill="#005F75"/>
<path d="M49.4627 59.4339H48.9417V56.494H49.4627V57.7161H50.8776V56.494H51.3986V59.4339H50.8776V58.1949H49.4627V59.4339Z" fill="#005F75"/>
<path fill-rule="evenodd" clip-rule="evenodd" d="M51.8212 60.0638H52.2787L52.3296 59.4339H54.4179V60.0638H54.85L54.922 58.9719H54.5535V56.494H52.4863V56.9098C52.4863 57.8925 52.355 58.4889 52.1093 58.9719H51.8212V60.0638ZM52.6642 58.9719C52.8675 58.5645 52.9861 57.9765 52.9861 57.2962V56.9602H54.0325V58.9719H52.6642Z" fill="#005F75"/>
<path d="M57.1778 59.4339H56.6568V56.494H59.0756V59.4339H58.5546V56.9602H57.1778V59.4339Z" fill="#005F75"/>
<path fill-rule="evenodd" clip-rule="evenodd" d="M61.2528 59.4843C62.1636 59.4843 62.8075 58.7913 62.8075 57.9639C62.8075 57.1282 62.1721 56.4436 61.2613 56.4436C60.3506 56.4436 59.7067 57.1366 59.7067 57.9639C59.7067 58.7997 60.3421 59.4843 61.2528 59.4843ZM61.2613 59.0097C60.6725 59.0097 60.2531 58.5351 60.2531 57.9639C60.2531 57.3843 60.664 56.9182 61.2528 56.9182C61.8416 56.9182 62.261 57.3928 62.261 57.9639C62.261 58.5435 61.8501 59.0097 61.2613 59.0097Z" fill="#005F75"/>
<path d="M63.9496 59.4339H63.437V56.494H63.9919L64.8942 57.8841L65.7965 56.494H66.3514V59.4339H65.8304V57.3256L64.8942 58.7115H64.8773L63.9496 57.334V59.4339Z" fill="#005F75"/>
<path fill-rule="evenodd" clip-rule="evenodd" d="M68.5294 59.4843C69.4402 59.4843 70.0841 58.7913 70.0841 57.9639C70.0841 57.1282 69.4487 56.4436 68.5379 56.4436C67.6272 56.4436 66.9833 57.1366 66.9833 57.9639C66.9833 58.7997 67.6187 59.4843 68.5294 59.4843ZM68.5379 59.0097C67.9491 59.0097 67.5297 58.5351 67.5297 57.9639C67.5297 57.3843 67.9406 56.9182 68.5294 56.9182C69.1182 56.9182 69.5376 57.3928 69.5376 57.9639C69.5376 58.5435 69.1267 59.0097 68.5379 59.0097Z" fill="#005F75"/>
<path d="M74.8946 60.0638H74.4667V59.4339H70.7136V56.494H71.2346V58.9677H72.3995V56.494H72.9163V58.9677H74.0813V56.494H74.6023V58.9677H74.9666L74.8946 60.0638Z" fill="#005F75"/>
<path d="M75.4337 59.4339H75.925L77.4204 57.292V59.4339H77.9329V56.494H77.4458L75.9462 58.6401V56.494H75.4337V59.4339Z" fill="#005F75"/>
<path fill-rule="evenodd" clip-rule="evenodd" d="M42.7757 64.1428H41.4583V61.2029H43.6695V61.6691H41.9751V62.3452H42.8011C43.4534 62.3452 43.877 62.6686 43.877 63.2356C43.877 63.8236 43.4534 64.1428 42.7757 64.1428ZM41.9751 62.782V63.6808H42.6613C43.1103 63.6808 43.356 63.5758 43.356 63.2146C43.356 62.929 43.14 62.782 42.7545 62.782H41.9751Z" fill="#005F75"/>
<path d="M44.4657 64.1428H46.6854V63.6808H44.9867V62.8912H46.4736V62.4292H44.9867V61.6649H46.6642V61.2029H44.4657V64.1428Z" fill="#005F75"/>
<path d="M47.168 61.5977C47.4518 61.3289 47.7864 61.1525 48.3117 61.1525C48.9259 61.1525 49.3538 61.4843 49.3538 61.942C49.3538 62.32 49.1123 62.5174 48.8497 62.6266C49.1801 62.7274 49.43 62.95 49.43 63.3322C49.43 63.8194 49.0022 64.1932 48.3414 64.1932C47.7653 64.1932 47.3883 64.0252 47.0578 63.7102L47.3417 63.3532C47.6085 63.6052 47.9262 63.7438 48.3287 63.7438C48.6421 63.7438 48.909 63.58 48.909 63.3028C48.909 63.0004 48.6167 62.8744 48.2312 62.8744H47.8966V62.446H48.227C48.604 62.446 48.837 62.2948 48.837 62.0176C48.837 61.7699 48.6082 61.6061 48.2778 61.6061C47.9262 61.6061 47.6721 61.7195 47.4476 61.9337L47.168 61.5977Z" fill="#005F75"/>
<path fill-rule="evenodd" clip-rule="evenodd" d="M49.7032 64.7727H50.1607L50.2115 64.1428H52.2999V64.7727H52.732L52.804 63.6808H52.4355V61.2029H50.3683V61.6187C50.3683 62.6014 50.2369 63.1978 49.9912 63.6808H49.7032V64.7727ZM50.5462 63.6808C50.7495 63.2734 50.8681 62.6854 50.8681 62.005V61.6691H51.9144V63.6808H50.5462Z" fill="#005F75"/>
<path fill-rule="evenodd" clip-rule="evenodd" d="M56.2383 62.6728C56.2383 63.5002 55.5944 64.1932 54.6836 64.1932C53.7729 64.1932 53.1375 63.5086 53.1375 62.6728C53.1375 61.8455 53.7813 61.1525 54.6921 61.1525C55.6028 61.1525 56.2383 61.8371 56.2383 62.6728ZM53.6839 62.6728C53.6839 63.244 54.1033 63.7186 54.6921 63.7186C55.2809 63.7186 55.6918 63.2524 55.6918 62.6728C55.6918 62.1016 55.2724 61.6271 54.6836 61.6271C54.0948 61.6271 53.6839 62.0932 53.6839 62.6728Z" fill="#005F75"/>
<path d="M56.8678 64.1428H57.3803V62.0428L58.308 63.4204H58.325L59.2612 62.0344V64.1428H59.7822V61.2029H59.2273L58.325 62.593L57.4227 61.2029H56.8678V64.1428Z" fill="#005F75"/>
<path d="M61.0664 64.1428H60.5454V61.2029H61.0664V62.425H62.4813V61.2029H63.0023V64.1428H62.4813V62.9038H61.0664V64.1428Z" fill="#005F75"/>
<path fill-rule="evenodd" clip-rule="evenodd" d="M63.7638 64.1428H64.9584C65.6446 64.1428 66.0767 63.7732 66.0767 63.181C66.0767 62.5888 65.6277 62.2612 64.9626 62.2612H64.2806V61.2029H63.7638V64.1428ZM64.2806 63.6808V62.7106H64.9414C65.3354 62.7106 65.5599 62.8744 65.5599 63.1768C65.5599 63.5086 65.3354 63.6808 64.9499 63.6808H64.2806Z" fill="#005F75"/>
<path d="M66.4283 64.1428H66.9451V61.2029H66.4283V64.1428Z" fill="#005F75"/>
<path d="M68.2187 64.1428H67.7061V61.2029H68.2611L69.1634 62.593L70.0656 61.2029H70.6206V64.1428H70.0995V62.0344L69.1634 63.4204H69.1464L68.2187 62.0428V64.1428Z" fill="#005F75"/>
<path d="M74.8311 64.1428V63.3616L75.2971 62.8366L76.1824 64.1428H76.8093L75.6359 62.4544L76.75 61.2029H76.1273L74.8311 62.7316V61.2029H74.3143V62.7316L73.018 61.2029H72.3953L73.5052 62.4544L72.336 64.1428H72.963L73.8483 62.8366L74.3143 63.3616V64.1428H74.8311Z" fill="#005F75"/>
<path d="M77.7452 64.1428H77.2538V61.2029H77.7664V63.349L79.266 61.2029H79.7531V64.1428H79.2406V62.0008L77.7452 64.1428Z" fill="#005F75"/>
<path fill-rule="evenodd" clip-rule="evenodd" d="M80.5219 64.1428H81.8944C82.5552 64.1428 82.9915 63.8614 82.9915 63.3364C82.9915 62.929 82.7501 62.7316 82.4027 62.614C82.623 62.5006 82.8263 62.3116 82.8263 61.9589C82.8263 61.7531 82.7585 61.5935 82.6272 61.4633C82.4578 61.2953 82.1909 61.2029 81.852 61.2029H80.5219V64.1428ZM81.0345 62.4418V61.6607H81.7842C82.1189 61.6607 82.3053 61.8035 82.3053 62.0344C82.3053 62.3116 82.0808 62.4418 81.7461 62.4418H81.0345ZM81.0345 63.685V62.8786H81.8605C82.2714 62.8786 82.4705 63.0256 82.4705 63.2734C82.4705 63.5464 82.2544 63.685 81.8986 63.685H81.0345Z" fill="#005F75"/>
<path fill-rule="evenodd" clip-rule="evenodd" d="M86.5485 62.6728C86.5485 63.5002 85.9046 64.1932 84.9938 64.1932C84.0831 64.1932 83.4477 63.5086 83.4477 62.6728C83.4477 61.8455 84.0916 61.1525 85.0023 61.1525C85.9131 61.1525 86.5485 61.8371 86.5485 62.6728ZM83.9941 62.6728C83.9941 63.244 84.4135 63.7186 85.0023 63.7186C85.5911 63.7186 86.002 63.2524 86.002 62.6728C86.002 62.1016 85.5826 61.6271 84.9938 61.6271C84.405 61.6271 83.9941 62.0932 83.9941 62.6728Z" fill="#005F75"/>
<path d="M87.9066 64.1428H88.4319V61.6817H89.3723V61.2029H86.9662V61.6817H87.9066V64.1428Z" fill="#005F75"/>
<path d="M90.4458 64.1428H89.9248V61.2029H90.4458V62.425H91.8607V61.2029H92.3817V64.1428H91.8607V62.9038H90.4458V64.1428Z" fill="#005F75"/>
<path fill-rule="evenodd" clip-rule="evenodd" d="M93.1432 64.1428H94.3378C95.024 64.1428 95.4561 63.7732 95.4561 63.181C95.4561 62.5888 95.0071 62.2612 94.342 62.2612H93.66V61.2029H93.1432V64.1428ZM93.66 63.6808V62.7106H94.3209C94.7148 62.7106 94.9393 62.8744 94.9393 63.1768C94.9393 63.5086 94.7148 63.6808 94.3293 63.6808H93.66Z" fill="#005F75"/>
<path d="M95.8077 64.1428H96.3245V61.2029H95.8077V64.1428Z" fill="#005F75"/>
<path d="M97.5982 64.1428H97.0856V61.2029H97.6405L98.5428 62.593L99.4451 61.2029H100V64.1428H99.479V62.0344L98.5428 63.4204H98.5258L97.5982 62.0428V64.1428Z" fill="#005F75"/>
</svg>
